# This file uses centimeters as units for non-parametric coordinates.

mtllib m13.mtl
g default
v 10.370297 0.006788 -1.674700
v 10.370297 1.006788 -1.674700
v 6.370297 1.006788 -5.674700
v 10.370297 1.006788 -5.674700
v 6.370297 0.006788 -5.674700
v 10.370297 0.006788 -5.674700
v 9.373285 0.006788 -5.674700
v 9.373285 1.006788 -5.674700
v 9.373285 1.006788 -4.698076
v 10.370297 1.006788 -4.698076
v 10.370297 0.006788 -4.698076
v 9.373285 0.006788 -4.698076
v 7.346920 1.006788 -4.698076
v 9.373285 1.006788 -2.671713
v 7.346920 0.006788 -4.698076
v 9.373285 0.006788 -2.671713
v 9.373285 4.994981 -5.674700
v 9.373285 4.994981 -4.698076
v 10.370297 4.994981 -4.698076
v 10.370297 4.994981 -5.674700
v 6.370297 4.994981 -5.674700
v 7.346920 4.994981 -4.698076
v 9.373285 4.994981 -2.671713
v 10.370297 4.994981 -1.674700
vt 0.625000 0.500000
vt 0.625000 0.250000
vt 0.375000 0.500000
vt 0.625000 0.500000
vt 0.375000 0.750000
vt 0.625000 0.750000
vt 0.875000 0.000000
vt 0.875000 0.250000
vt 0.562687 0.750000
vt 0.562687 0.500000
vt 0.562687 0.438961
vt 0.625000 0.438961
vt 0.813961 0.250000
vt 0.625000 0.811039
vt 0.813961 0.000000
vt 0.562687 0.811039
vt 0.436039 0.438961
vt 0.562687 0.312313
vt 0.436039 0.811039
vt 0.562687 0.937687
vt 0.625000 0.438961
vt 0.625000 0.500000
vt 0.562687 0.500000
vt 0.375000 0.500000
vt 0.436039 0.438961
vt 0.562687 0.438961
vt 0.562687 0.312313
vt 0.625000 0.250000
vn 0.000000 1.000000 0.000000
vn 0.000000 1.000000 0.000000
vn 0.000000 1.000000 0.000000
vn 0.000000 1.000000 0.000000
vn 0.000000 0.000000 -1.000000
vn 0.000000 0.000000 -1.000000
vn 0.000000 0.000000 -1.000000
vn 0.000000 0.000000 -1.000000
vn 0.000000 -1.000000 0.000000
vn 0.000000 -1.000000 0.000000
vn 0.000000 -1.000000 0.000000
vn 0.000000 -1.000000 0.000000
vn 1.000000 0.000000 0.000000
vn 1.000000 0.000000 0.000000
vn 1.000000 0.000000 0.000000
vn 1.000000 0.000000 0.000000
vn 0.000000 0.000000 -1.000000
vn 0.000000 0.000000 -1.000000
vn 0.000000 1.000000 0.000000
vn 0.000000 1.000000 0.000000
vn 0.000000 1.000000 0.000000
vn 0.000000 1.000000 0.000000
vn 1.000000 0.000000 0.000000
vn 1.000000 0.000000 0.000000
vn 0.000000 -1.000000 0.000000
vn 0.000000 -1.000000 0.000000
vn 0.000000 -1.000000 0.000000
vn 0.000000 -1.000000 0.000000
vn -0.707107 0.000000 0.707106
vn -0.707107 0.000000 0.707106
vn -0.707107 0.000000 0.707106
vn -0.707107 0.000000 0.707106
vn 0.000000 0.000000 1.000000
vn 0.000000 0.000000 1.000000
vn 0.000000 0.000000 1.000000
vn 0.000000 0.000000 1.000000
vn -1.000000 0.000000 0.000000
vn -1.000000 0.000000 0.000000
vn -1.000000 0.000000 0.000000
vn -1.000000 0.000000 0.000000
vn -0.707107 0.000000 0.707107
vn -0.707107 0.000000 0.707107
vn -0.707107 0.000000 0.707107
vn -0.707107 0.000000 0.707107
vn 1.000000 0.000000 0.000000
vn 1.000000 0.000000 0.000000
vn 1.000000 0.000000 0.000000
vn 1.000000 0.000000 0.000000
vn 0.000000 0.000000 -1.000000
vn 0.000000 0.000000 -1.000000
vn 0.000000 0.000000 -1.000000
vn 0.000000 0.000000 -1.000000
vn -0.707107 0.000000 0.707106
vn -0.707107 0.000000 0.707106
vn -0.707107 0.000000 0.707106
vn -0.707107 0.000000 0.707106
vn 0.000000 0.000000 1.000000
vn 0.000000 0.000000 1.000000
vn 0.000000 0.000000 1.000000
vn 0.000000 0.000000 1.000000
vn 0.000000 0.000000 -1.000000
vn 0.000000 0.000000 -1.000000
vn 0.000000 0.000000 -1.000000
vn 0.000000 0.000000 -1.000000
vn -1.000000 0.000000 0.000000
vn -1.000000 0.000000 0.000000
vn -1.000000 0.000000 0.000000
vn -1.000000 0.000000 0.000000
vn -0.707107 0.000000 0.707107
vn -0.707107 0.000000 0.707107
vn -0.707107 0.000000 0.707107
vn -0.707107 0.000000 0.707107
vn 1.000000 0.000000 0.000000
vn 1.000000 0.000000 0.000000
vn 1.000000 0.000000 0.000000
vn 1.000000 0.000000 0.000000
s 1
g pCube52 group2
usemtl initialShadingGroup
f 17/23/1 18/26/2 19/21/3 20/22/4
s 2
f 7/9/5 8/10/6 4/4/7 6/6/8
s 3
f 11/14/9 12/16/10 7/9/11 6/6/12
s 4
f 10/13/13 11/15/14 6/7/15 4/8/16
s 2
f 3/3/17 8/10/6 7/9/5 5/5/18
s 1
f 21/24/19 22/25/20 18/26/2 17/23/1
f 19/21/3 18/26/2 23/27/21 24/28/22
s 4
f 1/1/23 11/15/14 10/13/13 2/2/24
s 3
f 5/5/25 7/9/11 12/16/10 15/19/26
f 1/1/27 16/20/28 12/16/10 11/14/9
s off
f 13/17/29 3/3/30 5/5/31 15/19/32
f 15/19/33 12/16/34 9/11/35 13/17/36
f 14/18/37 9/11/38 12/16/39 16/20/40
f 2/2/41 14/18/42 16/20/43 1/1/44
f 10/12/45 4/4/46 20/22/47 19/21/48
f 4/4/49 8/10/50 17/23/51 20/22/52
f 3/3/53 13/17/54 22/25/55 21/24/56
f 13/17/57 9/11/58 18/26/59 22/25/60
f 8/10/61 3/3/62 21/24/63 17/23/64
f 9/11/65 14/18/66 23/27/67 18/26/68
f 14/18/69 2/2/70 24/28/71 23/27/72
f 2/2/73 10/12/74 19/21/75 24/28/76
