# This file uses centimeters as units for non-parametric coordinates.

mtllib m18.mtl
g default
v 26.990980 -0.010509 1.505521
v 22.990980 -0.010509 2.476856
v 26.990980 0.989491 1.505521
v 22.990980 0.989491 2.476856
v 25.980631 0.989491 5.505522
v 25.980631 -0.010509 5.505522
v 23.981272 -0.010509 1.505521
v 24.991622 -0.010509 5.505522
v 24.991622 0.989491 5.505522
v 23.981272 0.989491 1.505521
v 26.990980 0.989491 4.489169
v 23.981272 0.989491 4.489169
v 22.990980 0.989491 3.517835
v 22.990980 -0.010509 3.517835
v 23.981272 -0.010509 4.489169
v 26.990980 -0.010509 4.489169
v 26.990980 4.970048 4.489169
v 23.981272 4.970048 4.489169
v 24.991622 4.970048 5.505522
v 25.980631 4.970048 5.505522
v 23.981272 4.970048 4.489169
v 22.990980 4.970048 3.517835
v 23.981272 4.970048 1.505521
v 22.990980 4.970048 2.476856
v 27.991076 -0.010509 3.494620
v 27.991076 0.989491 3.494620
v 27.991076 -0.010509 2.500070
v 27.991076 0.989491 2.500070
v 26.990980 4.969535 1.505521
v 26.990980 4.969535 4.489169
v 27.991076 4.969535 3.494620
v 27.991076 4.969535 2.500070
vt 0.563107 0.250000
vt 0.563107 0.000000
vt 0.625000 0.000000
vt 0.625000 0.250000
vt 0.125000 0.000000
vt 0.188522 0.000000
vt 0.188522 0.250000
vt 0.125000 0.250000
vt 0.375000 0.750000
vt 0.563107 0.750000
vt 0.563107 0.813522
vt 0.375000 0.813522
vt 0.375000 0.500000
vt 0.563107 0.500000
vt 0.375000 0.436478
vt 0.563107 0.436478
vt 0.563107 0.500000
vt 0.375000 0.500000
vt 0.375000 0.000000
vt 0.375000 0.250000
vt 0.563107 0.436478
vt 0.375000 0.436478
vt 0.625000 0.436478
vt 0.563107 0.250000
vt 0.625000 0.250000
vt 0.718239 0.406761
vt 0.718239 0.343239
vt 0.563107 1.000000
vt 0.625000 1.000000
vt 0.375000 1.000000
vt 0.188522 0.250000
vt 0.188522 0.000000
vt 0.375000 0.000000
vt 0.375000 0.250000
vt 0.375000 0.250000
vt 0.188522 0.250000
vt 0.188522 0.250000
vt 0.375000 0.250000
vn -0.235976 0.000000 -0.971759
vn -0.235976 0.000000 -0.971759
vn -0.700240 0.000000 -0.713907
vn -0.700240 0.000000 -0.713907
vn 0.709198 0.000000 0.705009
vn 0.709198 0.000000 0.705009
vn 0.709198 0.000000 0.705009
vn 0.709198 0.000000 0.705009
vn -0.000000 -1.000000 0.000000
vn -0.000000 -1.000000 0.000000
vn -0.000000 -1.000000 0.000000
vn -0.000000 -1.000000 0.000000
vn -0.000000 0.000000 1.000000
vn -0.000000 0.000000 1.000000
vn -0.000000 0.000000 1.000000
vn -0.000000 0.000000 1.000000
vn 0.000000 1.000000 -0.000000
vn 0.000000 1.000000 -0.000000
vn 0.000000 1.000000 -0.000000
vn 0.000000 1.000000 -0.000000
vn 0.000000 0.000000 -1.000000
vn 0.000000 0.000000 -1.000000
vn 0.000000 1.000000 -0.000000
vn 0.000000 1.000000 -0.000000
vn 0.000000 1.000000 -0.000000
vn 0.000000 1.000000 -0.000000
vn 0.000000 1.000000 -0.000000
vn 0.000000 1.000000 -0.000000
vn 0.000000 1.000000 -0.000000
vn 0.000000 1.000000 -0.000000
vn -1.000000 0.000000 -0.000000
vn -1.000000 0.000000 -0.000000
vn -1.000000 0.000000 -0.000000
vn -1.000000 0.000000 -0.000000
vn 0.000000 -1.000000 0.000000
vn 0.000000 -1.000000 0.000000
vn 0.000000 -1.000000 0.000000
vn 0.000000 -1.000000 0.000000
vn 1.000000 0.000000 0.000000
vn 1.000000 0.000000 0.000000
vn 1.000000 0.000000 0.000000
vn 1.000000 0.000000 0.000000
vn 0.000000 0.000000 -1.000000
vn 0.000000 0.000000 -1.000000
vn 0.000000 0.000000 -1.000000
vn 0.000000 0.000000 -1.000000
vn -0.709198 0.000000 0.705009
vn -0.709198 0.000000 0.705009
vn -0.709198 0.000000 0.705009
vn -0.709198 0.000000 0.705009
vn -0.000000 0.000000 1.000000
vn -0.000000 0.000000 1.000000
vn -0.000000 0.000000 1.000000
vn -0.000000 0.000000 1.000000
vn 0.709198 0.000000 0.705009
vn 0.709198 0.000000 0.705009
vn 0.709198 0.000000 0.705009
vn 0.709198 0.000000 0.705009
vn -0.700240 0.000000 0.713907
vn -0.700240 0.000000 0.713907
vn -0.700240 0.000000 0.713907
vn -0.700240 0.000000 0.713907
vn 1.000000 0.000000 0.000000
vn 1.000000 0.000000 0.000000
vn 1.000000 0.000000 0.000000
vn 1.000000 0.000000 0.000000
vn -0.700240 0.000000 -0.713907
vn -0.700240 0.000000 -0.713907
vn -0.700240 0.000000 -0.713907
vn -0.700240 0.000000 -0.713907
vn -1.000000 0.000000 -0.000000
vn -1.000000 0.000000 -0.000000
vn -1.000000 0.000000 -0.000000
vn -1.000000 0.000000 -0.000000
vn -0.700240 0.000000 0.713907
vn -0.700240 0.000000 0.713907
vn -0.700240 0.000000 0.713907
vn -0.700240 0.000000 0.713907
vn -0.709198 0.000000 0.705009
vn -0.709198 0.000000 0.705009
vn -0.709198 0.000000 0.705009
vn -0.709198 0.000000 0.705009
vn 0.705138 0.000000 0.709070
vn 0.705138 0.000000 0.709070
vn 0.705138 0.000000 0.709070
vn 0.705138 0.000000 0.709070
vn 0.000000 -1.000000 0.000000
vn 0.000000 -1.000000 0.000000
vn 0.000000 -1.000000 0.000000
vn 0.000000 -1.000000 0.000000
vn 0.705138 0.000000 -0.709070
vn 0.705138 0.000000 -0.709070
vn 0.705138 0.000000 -0.709070
vn 0.705138 0.000000 -0.709070
vn 0.000000 1.000000 -0.000000
vn 0.000000 1.000000 -0.000000
vn 0.000000 1.000000 -0.000000
vn 0.000000 1.000000 -0.000000
vn -1.000000 0.000000 -0.000000
vn -1.000000 0.000000 -0.000000
vn -1.000000 0.000000 -0.000000
vn -1.000000 0.000000 -0.000000
vn 0.705138 0.000000 0.709070
vn 0.705138 0.000000 0.709070
vn 0.705138 0.000000 0.709070
vn 0.705138 0.000000 0.709070
vn 1.000000 0.000000 0.000000
vn 1.000000 0.000000 0.000000
vn 1.000000 0.000000 0.000000
vn 1.000000 0.000000 0.000000
vn 0.705138 0.000000 -0.709070
vn 0.705138 0.000000 -0.709070
vn 0.705138 0.000000 -0.709070
vn 0.705138 0.000000 -0.709070
s 1
g polySurface83 group2
usemtl initialShadingGroup
f 10/1/1 7/2/2 2/3/3 4/4/4
s off
f 6/5/5 16/6/6 11/7/7 5/8/8
s 2
f 6/9/9 8/10/10 15/11/11 16/12/12
s off
f 5/13/13 9/14/14 8/10/15 6/9/16
f 17/15/17 18/16/18 19/17/19 20/18/20
s 1
f 1/19/21 7/2/2 10/1/1 3/20/22
s off
f 3/20/23 10/1/24 12/21/25 11/22/26
f 22/23/27 21/16/28 23/24/29 24/25/30
f 2/3/31 14/26/32 13/27/33 4/4/34
s 2
f 7/28/35 15/11/11 14/26/36 2/29/37
f 16/12/12 15/11/11 7/28/35 1/30/38
s off
f 26/31/39 25/32/40 27/33/41 28/34/42
f 11/22/43 12/21/44 18/16/45 17/15/46
f 12/21/47 9/14/48 19/17/49 18/16/50
f 9/14/51 5/13/52 20/18/53 19/17/54
f 5/13/55 11/22/56 17/15/57 20/18/58
f 13/27/59 12/21/60 21/16/61 22/23/62
f 12/21/63 10/1/64 23/24/65 21/16/66
f 10/1/67 4/4/68 24/25/69 23/24/70
f 4/4/71 13/27/72 22/23/73 24/25/74
f 12/21/75 13/27/76 14/26/77 15/11/78
f 9/14/79 12/21/80 15/11/81 8/10/82
f 11/7/83 16/6/84 25/32/85 26/31/86
f 16/6/87 1/19/88 27/33/89 25/32/90
f 1/19/91 3/20/92 28/34/93 27/33/94
f 29/35/95 30/36/96 31/37/97 32/38/98
f 3/20/99 11/7/100 30/36/101 29/35/102
f 11/7/103 26/31/104 31/37/105 30/36/106
f 26/31/107 28/34/108 32/38/109 31/37/110
f 28/34/111 3/20/112 29/35/113 32/38/114
