# This file uses centimeters as units for non-parametric coordinates.

mtllib m21.mtl
g default
v 7.189137 -0.010509 9.379744
v 7.189137 0.989491 9.379744
v 6.217803 -0.010509 8.389451
v 6.217803 0.989491 8.389451
v 9.201450 0.989491 8.389451
v 8.230116 0.989491 9.379744
v 8.230116 -0.010509 9.379744
v 9.201451 -0.010509 8.389451
v 9.201450 4.970048 8.389451
v 8.230116 4.970048 9.379744
v 6.217803 4.970048 8.389451
v 7.189137 4.970048 9.379744
vt 0.563107 0.250000
vt 0.563107 0.500000
vt 0.625000 0.000000
vt 0.625000 0.250000
vt 0.625000 0.436478
vt 0.563107 0.436478
vt 0.563107 0.250000
vt 0.625000 0.250000
vt 0.718239 0.406761
vt 0.718239 0.343239
vt 0.563107 0.813522
vt 0.625000 1.000000
vt 0.563107 0.436478
vn -0.713907 0.000000 0.700240
vn -0.713907 0.000000 0.700240
vn -0.713907 0.000000 0.700240
vn -0.713907 0.000000 0.700240
vn 0.000000 1.000000 0.000000
vn 0.000000 1.000000 0.000000
vn 0.000000 1.000000 0.000000
vn 0.000000 1.000000 0.000000
vn 0.000000 0.000000 1.000000
vn 0.000000 0.000000 1.000000
vn 0.000000 0.000000 1.000000
vn 0.000000 0.000000 1.000000
vn 0.000000 -1.000000 0.000000
vn 0.000000 -1.000000 0.000000
vn 0.000000 -1.000000 0.000000
vn 0.000000 -1.000000 0.000000
vn 0.713907 0.000000 0.700240
vn 0.713907 0.000000 0.700240
vn 0.713907 0.000000 0.700240
vn 0.713907 0.000000 0.700240
vn -0.000000 0.000000 -1.000000
vn -0.000000 0.000000 -1.000000
vn -0.000000 0.000000 -1.000000
vn -0.000000 0.000000 -1.000000
vn -0.713907 0.000000 0.700240
vn -0.713907 0.000000 0.700240
vn -0.713907 0.000000 0.700240
vn -0.713907 0.000000 0.700240
vn 0.000000 0.000000 1.000000
vn 0.000000 0.000000 1.000000
vn 0.000000 0.000000 1.000000
vn 0.000000 0.000000 1.000000
vn 0.713907 0.000000 0.700240
vn 0.713907 0.000000 0.700240
vn 0.713907 0.000000 0.700240
vn 0.713907 0.000000 0.700240
vn -0.000000 0.000000 -1.000000
vn -0.000000 0.000000 -1.000000
vn -0.000000 0.000000 -1.000000
vn -0.000000 0.000000 -1.000000
s off
g polySurface95 group2
usemtl initialShadingGroup
f 4/1/1 3/2/2 1/3/3 2/4/4
f 10/5/5 9/6/6 11/7/7 12/8/8
f 1/3/9 7/9/10 6/10/11 2/4/12
f 3/2/13 8/11/14 7/9/15 1/12/16
f 6/10/17 5/13/18 9/6/19 10/5/20
f 5/13/21 4/1/22 11/7/23 9/6/24
f 4/1/25 2/4/26 12/8/27 11/7/28
f 2/4/29 6/10/30 10/5/31 12/8/32
f 5/13/33 6/10/34 7/9/35 8/11/36
f 8/11/37 3/2/38 4/1/39 5/13/40
