# This file uses centimeters as units for non-parametric coordinates.

mtllib m22.mtl
g default
v 9.209579 -0.010509 5.409630
v 9.209579 0.989491 5.409630
v 9.209579 0.989491 8.393278
v 9.209579 -0.010509 8.393278
v 10.209675 -0.010509 7.398729
v 10.209675 0.989491 7.398729
v 10.209675 -0.010509 6.404179
v 10.209675 0.989491 6.404179
v 9.209579 4.969535 5.409630
v 9.209579 4.969535 8.393278
v 10.209675 4.969535 7.398729
v 10.209675 4.969535 6.404179
vt 0.188522 0.250000
vt 0.188522 0.000000
vt 0.375000 0.000000
vt 0.375000 0.250000
vt 0.281761 0.343239
vt 0.281761 0.406761
vt 0.375000 0.000000
vt 0.375000 0.250000
vt 0.375000 0.250000
vt 0.188522 0.250000
vt 0.188522 0.250000
vt 0.375000 0.250000
vn 1.000000 0.000000 0.000000
vn 1.000000 0.000000 0.000000
vn 1.000000 0.000000 0.000000
vn 1.000000 0.000000 0.000000
vn 0.705138 0.000000 0.709070
vn 0.705138 0.000000 0.709070
vn 0.705138 0.000000 0.709070
vn 0.705138 0.000000 0.709070
vn 0.000000 -1.000000 0.000000
vn 0.000000 -1.000000 0.000000
vn 0.000000 -1.000000 0.000000
vn 0.000000 -1.000000 0.000000
vn 0.705138 0.000000 -0.709070
vn 0.705138 0.000000 -0.709070
vn 0.705138 0.000000 -0.709070
vn 0.705138 0.000000 -0.709070
vn 0.000000 1.000000 -0.000000
vn 0.000000 1.000000 -0.000000
vn 0.000000 1.000000 -0.000000
vn 0.000000 1.000000 -0.000000
vn -1.000000 0.000000 -0.000000
vn -1.000000 0.000000 -0.000000
vn -1.000000 0.000000 -0.000000
vn -1.000000 0.000000 -0.000000
vn 0.705138 0.000000 0.709070
vn 0.705138 0.000000 0.709070
vn 0.705138 0.000000 0.709070
vn 0.705138 0.000000 0.709070
vn 1.000000 0.000000 0.000000
vn 1.000000 0.000000 0.000000
vn 1.000000 0.000000 0.000000
vn 1.000000 0.000000 0.000000
vn 0.705138 0.000000 -0.709070
vn 0.705138 0.000000 -0.709070
vn 0.705138 0.000000 -0.709070
vn 0.705138 0.000000 -0.709070
vn -1.000000 0.000000 -0.000000
vn -1.000000 0.000000 -0.000000
vn -1.000000 0.000000 -0.000000
vn -1.000000 0.000000 -0.000000
s off
g polySurface98 group2
usemtl initialShadingGroup
f 6/1/1 5/2/2 7/3/3 8/4/4
f 3/5/5 4/6/6 5/2/7 6/1/8
f 4/6/9 1/7/10 7/3/11 5/2/12
f 1/7/13 2/8/14 8/4/15 7/3/16
f 9/9/17 10/10/18 11/11/19 12/12/20
f 2/8/21 3/5/22 10/10/23 9/9/24
f 3/5/25 6/1/26 11/11/27 10/10/28
f 6/1/29 8/4/30 12/12/31 11/11/32
f 8/4/33 2/8/34 9/9/35 12/12/36
f 3/5/37 2/8/38 1/7/39 4/6/40
