# This file uses centimeters as units for non-parametric coordinates.

mtllib m4.mtl
g default
v 23.989842 0.000379 -7.620758
v 22.965850 0.000379 -11.620757
v 23.989842 1.000379 -7.620758
v 22.965850 1.000379 -11.620757
v 20.989842 1.000379 -7.620758
v 22.013835 1.000379 -11.620757
v 20.989842 0.000379 -7.620758
v 22.013835 0.000379 -11.620757
v 23.989842 0.000379 -10.630466
v 20.989842 0.000379 -10.630466
v 20.989842 1.000379 -10.630466
v 23.989842 1.000379 -10.630466
v 20.989842 5.019417 -10.630466
v 23.989842 5.019417 -10.630466
v 22.965850 5.019417 -11.620757
v 22.013835 5.019417 -11.620757
vt 0.375000 0.000000
vt 0.625000 0.000000
vt 0.375000 0.250000
vt 0.625000 0.250000
vt 0.375000 0.500000
vt 0.625000 0.500000
vt 0.375000 0.750000
vt 0.625000 0.750000
vt 0.375000 1.000000
vt 0.625000 1.000000
vt 0.875000 0.000000
vt 0.875000 0.250000
vt 0.125000 0.000000
vt 0.125000 0.250000
vt 0.563107 0.000000
vt 0.563107 1.000000
vt 0.563107 0.750000
vt 0.563107 0.500000
vt 0.563107 0.250000
vt 0.563107 0.500000
vt 0.563107 0.250000
vt 0.625000 0.250000
vt 0.625000 0.500000
vn 0.968760 0.000000 -0.248001
vn 0.968760 0.000000 -0.248001
vn 0.695179 0.000000 -0.718837
vn 0.695179 0.000000 -0.718837
vn 0.000000 1.000000 0.000000
vn 0.000000 1.000000 0.000000
vn 0.000000 1.000000 0.000000
vn 0.000000 1.000000 0.000000
vn -0.968760 0.000000 -0.248001
vn -0.968760 0.000000 -0.248001
vn -0.695179 0.000000 -0.718837
vn -0.695179 0.000000 -0.718837
vn 0.000000 -1.000000 0.000000
vn 0.000000 -1.000000 0.000000
vn 0.000000 -1.000000 0.000000
vn 0.000000 -1.000000 0.000000
vn 0.000000 0.000000 -1.000000
vn 0.000000 0.000000 -1.000000
vn 0.000000 0.000000 -1.000000
vn 0.000000 0.000000 -1.000000
vn 0.000000 0.000000 1.000000
vn 0.000000 0.000000 1.000000
vn 0.000000 0.000000 1.000000
vn 0.000000 0.000000 1.000000
vn 0.000000 -1.000000 0.000000
vn 0.000000 -1.000000 0.000000
vn -1.000000 0.000000 -0.000000
vn -1.000000 0.000000 -0.000000
vn 0.000000 1.000000 0.000000
vn 0.000000 1.000000 0.000000
vn 0.000000 1.000000 0.000000
vn 0.000000 1.000000 0.000000
vn 1.000000 0.000000 0.000000
vn 1.000000 0.000000 0.000000
vn 0.000000 0.000000 1.000000
vn 0.000000 0.000000 1.000000
vn 0.000000 0.000000 1.000000
vn 0.000000 0.000000 1.000000
vn 0.695179 0.000000 -0.718837
vn 0.695179 0.000000 -0.718837
vn 0.695179 0.000000 -0.718837
vn 0.695179 0.000000 -0.718837
vn 0.000000 0.000000 -1.000000
vn 0.000000 0.000000 -1.000000
vn 0.000000 0.000000 -1.000000
vn 0.000000 0.000000 -1.000000
vn -0.695179 0.000000 -0.718837
vn -0.695179 0.000000 -0.718837
vn -0.695179 0.000000 -0.718837
vn -0.695179 0.000000 -0.718837
s 1
g pCube46 group2
usemtl initialShadingGroup
f 12/19/1 9/15/2 2/2/3 4/4/4
s off
f 13/20/5 14/21/6 15/22/7 16/23/8
s 2
f 10/17/9 11/18/10 6/6/11 8/8/12
s 3
f 9/16/13 10/17/14 8/8/15 2/10/16
s off
f 2/2/17 8/11/18 6/12/19 4/4/20
f 7/13/21 1/1/22 3/3/23 5/14/24
s 3
f 7/7/25 10/17/14 9/16/13 1/9/26
s 2
f 5/5/27 11/18/10 10/17/9 7/7/28
s off
f 3/3/29 12/19/30 11/18/31 5/5/32
s 1
f 1/1/33 9/15/2 12/19/1 3/3/34
s off
f 11/18/35 12/19/36 14/21/37 13/20/38
f 12/19/39 4/4/40 15/22/41 14/21/42
f 4/4/43 6/6/44 16/23/45 15/22/46
f 6/6/47 11/18/48 13/20/49 16/23/50
