# This file uses centimeters as units for non-parametric coordinates.

mtllib m7.mtl
g default
v 20.968961 0.000379 -7.620758
v 19.997627 0.000379 -11.620758
v 20.968961 1.000379 -7.620758
v 19.997627 1.000379 -11.620758
v 16.968961 1.000379 -8.631108
v 16.968961 0.000379 -8.631108
v 20.968961 0.000379 -10.630466
v 16.968961 0.000379 -9.620116
v 16.968961 1.000379 -9.620116
v 20.968961 1.000379 -10.630466
v 17.985313 1.000379 -7.620758
v 17.985313 1.000379 -10.630466
v 18.956648 1.000379 -11.620758
v 18.956648 0.000379 -11.620758
v 17.985313 0.000379 -10.630466
v 17.985313 0.000379 -7.620758
v 17.985313 4.980936 -7.620758
v 17.985313 4.980936 -10.630466
v 16.968961 4.980936 -9.620116
v 16.968961 4.980936 -8.631108
v 17.985313 4.980936 -10.630466
v 18.956648 4.980936 -11.620758
v 20.968961 4.980936 -10.630466
v 19.997627 4.980936 -11.620758
vt 0.375000 0.000000
vt 0.625000 0.000000
vt 0.375000 0.250000
vt 0.625000 0.250000
vt 0.375000 0.500000
vt 0.375000 0.750000
vt 0.375000 1.000000
vt 0.625000 1.000000
vt 0.125000 0.000000
vt 0.125000 0.250000
vt 0.563107 0.000000
vt 0.563107 1.000000
vt 0.563107 0.750000
vt 0.563107 0.500000
vt 0.563107 0.250000
vt 0.188522 0.250000
vt 0.375000 0.436478
vt 0.563107 0.436478
vt 0.718239 0.343239
vt 0.718239 0.406761
vt 0.563107 0.813522
vt 0.188522 0.000000
vt 0.375000 0.813522
vt 0.375000 0.436478
vt 0.563107 0.436478
vt 0.563107 0.500000
vt 0.375000 0.500000
vt 0.625000 0.436478
vt 0.563107 0.250000
vt 0.625000 0.250000
vn 0.971759 0.000000 -0.235976
vn 0.971759 0.000000 -0.235976
vn 0.713907 0.000000 -0.700240
vn 0.713907 0.000000 -0.700240
vn -0.705010 0.000000 0.709198
vn -0.244896 0.000000 0.969549
vn -0.244896 0.000000 0.969549
vn -0.705010 0.000000 0.709198
vn 0.000000 -1.000000 0.000000
vn 0.000000 -1.000000 0.000000
vn 0.000000 -1.000000 0.000000
vn 0.000000 -1.000000 0.000000
vn -1.000000 0.000000 -0.000000
vn -1.000000 0.000000 -0.000000
vn -1.000000 0.000000 -0.000000
vn -1.000000 0.000000 -0.000000
vn -0.000000 1.000000 -0.000000
vn -0.000000 1.000000 -0.000000
vn -0.000000 1.000000 -0.000000
vn -0.000000 1.000000 -0.000000
vn 1.000000 0.000000 0.000000
vn 1.000000 0.000000 0.000000
vn 0.000000 1.000000 0.000000
vn 0.000000 1.000000 0.000000
vn 0.000000 1.000000 0.000000
vn 0.000000 1.000000 0.000000
vn 0.000000 1.000000 0.000000
vn 0.000000 1.000000 0.000000
vn 0.000000 1.000000 0.000000
vn 0.000000 1.000000 0.000000
vn 0.000000 0.000000 -1.000000
vn 0.000000 0.000000 -1.000000
vn 0.000000 0.000000 -1.000000
vn 0.000000 0.000000 -1.000000
vn 0.000000 -1.000000 0.000000
vn 0.000000 -1.000000 0.000000
vn 0.000000 -1.000000 0.000000
vn 0.000000 -1.000000 0.000000
vn 0.000000 0.000000 1.000000
vn 0.000000 0.000000 1.000000
vn 1.000000 0.000000 0.000000
vn 1.000000 0.000000 0.000000
vn 1.000000 0.000000 0.000000
vn 1.000000 0.000000 0.000000
vn -0.705009 0.000000 -0.709198
vn -0.705009 0.000000 -0.709198
vn -0.705009 0.000000 -0.709198
vn -0.705009 0.000000 -0.709198
vn -1.000000 0.000000 -0.000000
vn -1.000000 0.000000 -0.000000
vn -1.000000 0.000000 -0.000000
vn -1.000000 0.000000 -0.000000
vn -0.705010 0.000000 0.709198
vn -0.705010 0.000000 0.709198
vn -0.705010 0.000000 0.709198
vn -0.705010 0.000000 0.709198
vn -0.713907 0.000000 -0.700240
vn -0.713907 0.000000 -0.700240
vn -0.713907 0.000000 -0.700240
vn -0.713907 0.000000 -0.700240
vn 0.000000 0.000000 1.000000
vn 0.000000 0.000000 1.000000
vn 0.000000 0.000000 1.000000
vn 0.000000 0.000000 1.000000
vn 0.713907 0.000000 -0.700240
vn 0.713907 0.000000 -0.700240
vn 0.713907 0.000000 -0.700240
vn 0.713907 0.000000 -0.700240
vn 0.000000 0.000000 -1.000000
vn 0.000000 0.000000 -1.000000
vn 0.000000 0.000000 -1.000000
vn 0.000000 0.000000 -1.000000
vn -0.713907 0.000000 -0.700240
vn -0.713907 0.000000 -0.700240
vn -0.713907 0.000000 -0.700240
vn -0.713907 0.000000 -0.700240
vn -0.705010 0.000000 -0.709198
vn -0.705010 0.000000 -0.709198
vn -0.705010 0.000000 -0.709198
vn -0.705010 0.000000 -0.709198
s 1
g pCube45 group2
usemtl initialShadingGroup
f 10/15/1 7/11/2 2/2/3 4/4/4
s 2
f 6/9/5 16/22/6 11/16/7 5/10/8
s 3
f 6/6/9 8/13/10 15/21/11 16/23/12
s off
f 5/5/13 9/14/14 8/13/15 6/6/16
f 17/24/17 18/25/18 19/26/19 20/27/20
s 1
f 1/1/21 7/11/2 10/15/1 3/3/22
s off
f 3/3/23 10/15/24 12/18/25 11/17/26
f 22/28/27 21/25/28 23/29/29 24/30/30
f 2/2/31 14/20/32 13/19/33 4/4/34
s 3
f 7/12/35 15/21/11 14/20/36 2/8/37
f 16/23/12 15/21/11 7/12/35 1/7/38
s 2
f 11/16/7 16/22/6 1/1/39 3/3/40
s off
f 11/17/41 12/18/42 18/25/43 17/24/44
f 12/18/45 9/14/46 19/26/47 18/25/48
f 9/14/49 5/5/50 20/27/51 19/26/52
f 5/5/53 11/17/54 17/24/55 20/27/56
f 13/19/57 12/18/58 21/25/59 22/28/60
f 12/18/61 10/15/62 23/29/63 21/25/64
f 10/15/65 4/4/66 24/30/67 23/29/68
f 4/4/69 13/19/70 22/28/71 24/30/72
f 12/18/73 13/19/74 14/20/75 15/21/76
f 9/14/77 12/18/78 15/21/79 8/13/80
