# This file uses centimeters as units for non-parametric coordinates.

mtllib arbol1.mtl
g default
v -0.651762 1.467907 0.372969
v -0.810864 1.179492 -1.197472
v -2.250457 1.467907 -1.844906
v -3.530947 1.179492 -0.921899
v -3.371845 1.467907 0.648541
v -1.932253 1.179492 1.295975
v -1.371558 1.672703 0.049252
v -1.451109 2.038638 -0.735969
v -2.170906 1.672703 -1.059686
v -2.811151 2.038638 -0.598182
v -2.731600 1.672703 0.187038
v -2.011804 2.038638 0.510755
v -2.091355 1.571404 -0.274465
v -2.091355 2.526641 -0.274465
v -1.207134 3.286634 -0.865516
v -2.033021 2.396179 -1.643458
v -3.420150 2.358379 -1.250218
v -3.644675 2.303648 0.173434
v -2.818788 3.194103 0.951377
v -1.431659 3.231903 0.558136
v -1.924277 3.331274 -0.686575
v -2.535747 3.421035 -1.224401
v -3.030785 2.867146 -0.878926
v -3.341574 3.374770 -0.315954
v -2.730104 3.285008 0.221871
v -2.235066 3.838897 -0.123603
v -2.522301 3.054910 -0.418318
v -2.894039 4.056672 -0.697047
v -2.010735 0.000000 -0.659606
v -2.083476 0.000000 -0.802369
v -2.196774 0.000000 -0.915667
v -2.339538 0.000000 -0.988409
v -2.497793 0.000000 -1.013474
v -2.656047 0.000000 -0.988409
v -2.798811 0.000000 -0.915667
v -2.912109 0.000000 -0.802369
v -2.984851 0.000000 -0.659606
v -3.009916 0.000000 -0.501351
v -2.984851 0.000000 -0.343096
v -2.912109 0.000000 -0.200333
v -2.798811 0.000000 -0.087035
v -2.656047 0.000000 -0.014293
v -2.497793 0.000000 0.010772
v -2.339538 0.000000 -0.014293
v -2.196774 0.000000 -0.087035
v -2.083477 0.000000 -0.200333
v -2.010735 0.000000 -0.343096
v -1.985670 0.000000 -0.501351
v -1.731853 2.047895 -0.353258
v -1.778987 2.023016 -0.445830
v -1.852400 1.994649 -0.518051
v -1.944906 1.965569 -0.562852
v -2.047450 1.938623 -0.575848
v -2.149994 1.916450 -0.555766
v -2.242499 1.901218 -0.504572
v -2.315912 1.894421 -0.427278
v -2.363047 1.896722 -0.331449
v -2.379288 1.907896 -0.226465
v -2.363047 1.926851 -0.122604
v -2.315912 1.951729 -0.030033
v -2.242499 1.980097 0.042189
v -2.149993 2.009177 0.086990
v -2.047450 2.036123 0.099986
v -1.944906 2.058296 0.079904
v -1.852401 2.073527 0.028710
v -1.778988 2.080325 -0.048584
v -1.731853 2.078024 -0.144414
v -1.715612 2.066849 -0.249397
v -2.660221 3.822533 -0.708762
v -2.684306 3.826277 -0.756285
v -2.721819 3.831387 -0.793957
v -2.769089 3.837363 -0.818091
v -2.821487 3.843621 -0.826323
v -2.873886 3.849548 -0.817849
v -2.921155 3.854563 -0.793498
v -2.958668 3.858176 -0.755653
v -2.982753 3.860033 -0.708019
v -2.991052 3.859952 -0.655258
v -2.982753 3.857941 -0.602536
v -2.958668 3.854198 -0.555013
v -2.921155 3.849087 -0.517341
v -2.873886 3.843111 -0.493208
v -2.821487 3.836853 -0.484975
v -2.769089 3.830926 -0.493449
v -2.721819 3.825912 -0.517801
v -2.684306 3.822299 -0.555646
v -2.660221 3.820442 -0.603280
v -2.651922 3.820523 -0.656040
v -2.600312 5.741803 -0.617945
v -2.159267 4.697878 -1.513715
v -3.138410 4.364467 -1.513715
v -3.627982 4.697878 -0.665752
v -3.138410 4.364467 0.182211
v -2.159267 4.697878 0.182211
v -1.669695 4.364467 -0.665752
v -2.404052 4.934625 -1.089733
v -2.893624 5.357651 -1.089734
v -3.138410 4.934625 -0.665752
v -2.893624 5.357651 -0.241770
v -2.404053 4.934625 -0.241771
v -2.159267 5.357651 -0.665752
v -2.648839 4.817522 -0.665752
v -2.648839 5.921789 -0.665752
vt 0.625000 0.033494
vt 0.375000 0.033494
vt 0.250000 0.250000
vt 0.375000 0.466506
vt 0.625000 0.466506
vt 0.750000 0.250000
vt 0.250000 0.500000
vt 0.333333 0.500000
vt 0.416667 0.500000
vt 0.500000 0.500000
vt 0.583333 0.500000
vt 0.666667 0.500000
vt 0.750000 0.500000
vt 0.375000 0.750000
vt 0.416667 0.750000
vt 0.458333 0.750000
vt 0.500000 0.750000
vt 0.541667 0.750000
vt 0.583333 0.750000
vt 0.625000 0.750000
vt 0.500000 0.250000
vt 0.500000 1.000000
vt 0.250000 0.500000
vt 0.333333 0.500000
vt 0.416667 0.750000
vt 0.375000 0.750000
vt 0.416667 0.500000
vt 0.458333 0.750000
vt 0.500000 0.500000
vt 0.500000 0.750000
vt 0.583333 0.500000
vt 0.541667 0.750000
vt 0.666667 0.500000
vt 0.583333 0.750000
vt 0.750000 0.500000
vt 0.625000 0.750000
vt 0.375000 0.033494
vt 0.625000 0.033494
vt 0.500000 0.250000
vt 0.250000 0.250000
vt 0.375000 0.466506
vt 0.625000 0.466506
vt 0.750000 0.250000
vt 0.500000 1.000000
vt 0.250000 0.500000
vt 0.275000 0.500000
vt 0.350000 0.666667
vt 0.333333 0.666667
vt 0.300000 0.500000
vt 0.366667 0.666667
vt 0.325000 0.500000
vt 0.383333 0.666667
vt 0.350000 0.500000
vt 0.400000 0.666667
vt 0.375000 0.500000
vt 0.416667 0.666667
vt 0.400000 0.500000
vt 0.433333 0.666667
vt 0.425000 0.500000
vt 0.450000 0.666667
vt 0.450000 0.500000
vt 0.466667 0.666667
vt 0.475000 0.500000
vt 0.483333 0.666667
vt 0.500000 0.500000
vt 0.500000 0.666667
vt 0.525000 0.500000
vt 0.516667 0.666667
vt 0.550000 0.500000
vt 0.533333 0.666667
vt 0.575000 0.500000
vt 0.550000 0.666667
vt 0.600000 0.500000
vt 0.566666 0.666667
vt 0.625000 0.500000
vt 0.583333 0.666667
vt 0.650000 0.500000
vt 0.600000 0.666667
vt 0.675000 0.500000
vt 0.616666 0.666667
vt 0.700000 0.500000
vt 0.633333 0.666667
vt 0.725000 0.500000
vt 0.650000 0.666667
vt 0.750000 0.500000
vt 0.666666 0.666667
vt 0.425000 0.833333
vt 0.416667 0.833333
vt 0.433333 0.833333
vt 0.441667 0.833333
vt 0.450000 0.833333
vt 0.458333 0.833333
vt 0.466667 0.833333
vt 0.475000 0.833333
vt 0.483333 0.833333
vt 0.491667 0.833333
vt 0.500000 0.833333
vt 0.508333 0.833333
vt 0.516667 0.833333
vt 0.525000 0.833333
vt 0.533333 0.833333
vt 0.541667 0.833333
vt 0.550000 0.833333
vt 0.558333 0.833333
vt 0.566667 0.833333
vt 0.575000 0.833333
vt 0.583333 0.833333
vt 0.737764 0.172746
vt 0.750000 0.250000
vt 0.737764 0.327254
vt 0.702254 0.396946
vt 0.646946 0.452254
vt 0.577254 0.487764
vt 0.500000 0.500000
vt 0.422746 0.487764
vt 0.353054 0.452254
vt 0.297746 0.396946
vt 0.262236 0.327254
vt 0.250000 0.250000
vt 0.262236 0.172746
vt 0.297746 0.103054
vt 0.353054 0.047746
vt 0.422746 0.012236
vt 0.500000 -0.000000
vt 0.577254 0.012236
vt 0.646946 0.047746
vt 0.702254 0.103054
vt 0.500000 1.000000
vt 0.250000 0.500000
vt 0.333333 0.500000
vt 0.416667 0.750000
vt 0.375000 0.750000
vt 0.416667 0.500000
vt 0.458333 0.750000
vt 0.500000 0.500000
vt 0.500000 0.750000
vt 0.583333 0.500000
vt 0.541667 0.750000
vt 0.666667 0.500000
vt 0.583333 0.750000
vt 0.750000 0.500000
vt 0.625000 0.750000
vt 0.375000 0.033494
vt 0.625000 0.033494
vt 0.500000 0.250000
vt 0.250000 0.250000
vt 0.375000 0.466506
vt 0.625000 0.466506
vt 0.750000 0.250000
vt 0.500000 1.000000
vn 0.518158 0.822926 0.233033
vn 0.445747 0.835507 -0.321305
vn 0.441439 0.838976 -0.318199
vn 0.541886 0.804343 0.243705
vn -0.057266 0.822926 -0.565255
vn -0.059889 0.804343 -0.591139
vn -0.501132 0.835508 -0.225376
vn -0.496288 0.838977 -0.223197
vn -0.460892 0.822926 0.332221
vn -0.481997 0.804343 0.347435
vn 0.055384 0.835507 0.546681
vn 0.054849 0.838976 0.541396
vn -0.195478 -0.970533 0.140905
vn -0.059670 -0.997857 -0.026836
vn -0.000000 -1.000000 0.000000
vn 0.006595 -0.997857 0.065094
vn 0.219766 -0.970533 0.098836
vn 0.053076 -0.997857 -0.038258
vn -0.024288 -0.970533 -0.239741
vn 0.693350 0.677496 0.245489
vn -0.013696 0.677496 -0.735399
vn -0.134075 0.677496 -0.723203
vn -0.630026 0.677496 0.379561
vn -0.559275 0.677496 0.477714
vn 0.643722 0.677496 0.355838
vn 0.356464 0.837032 -0.415104
vn -0.099855 0.574688 -0.812258
vn -0.103093 0.580517 -0.807695
vn 0.384343 0.823374 -0.417535
vn -0.697126 0.395100 -0.598256
vn -0.705275 0.366331 -0.606950
vn -0.846345 0.531830 0.029295
vn -0.842506 0.538065 0.025880
vn -0.410825 0.792979 0.449897
vn -0.409184 0.777815 0.477046
vn 0.178686 0.961781 0.207483
vn 0.172807 0.963940 0.202378
vn 0.246616 -0.809049 0.533498
vn 0.258235 -0.924494 0.280401
vn 0.336638 -0.907174 0.252410
vn 0.392218 -0.868295 0.303692
vn 0.599505 -0.788788 0.135670
vn 0.355810 -0.918892 0.170400
vn 0.114942 -0.992040 0.051435
vn 0.527698 0.698484 -0.483379
vn -0.693782 0.186131 -0.695717
vn -0.782796 0.181021 -0.595367
vn -0.450873 0.642300 0.619810
vn -0.328645 0.693569 0.641057
vn 0.560912 0.744642 -0.361782
vn 0.945041 -0.081238 -0.316700
vn 0.796145 -0.012782 -0.604971
vn 0.818954 0.087289 -0.567181
vn 0.952676 0.090015 -0.290354
vn 0.555801 0.069900 -0.828371
vn 0.602768 0.086089 -0.793258
vn 0.256694 0.155802 -0.953852
vn 0.322711 0.087372 -0.942456
vn -0.055799 0.232748 -0.970935
vn 0.007641 0.090686 -0.995850
vn -0.342722 0.292195 -0.892841
vn -0.307757 0.094482 -0.946762
vn -0.582193 0.330596 -0.742804
vn -0.589827 0.097099 -0.801670
vn -0.765887 0.347479 -0.540995
vn -0.810896 0.097430 -0.577022
vn -0.889942 0.343118 -0.300455
vn -0.950645 0.095108 -0.295344
vn -0.947811 0.317396 -0.030240
vn -0.995755 0.090492 0.016815
vn -0.927693 0.270118 0.257723
vn -0.940389 0.084653 0.329398
vn -0.816252 0.202729 0.540957
vn -0.788388 0.079272 0.610049
vn -0.609573 0.120784 0.783475
vn -0.555421 0.076225 0.828068
vn -0.325388 0.034774 0.944941
vn -0.267922 0.076669 0.960385
vn -0.002837 -0.043015 0.999070
vn 0.042067 0.080222 0.995889
vn 0.313482 -0.103457 0.943941
vn 0.343032 0.085255 0.935447
vn 0.589091 -0.142571 0.795390
vn 0.607793 0.089950 0.788985
vn 0.802658 -0.159795 0.574635
vn 0.814732 0.093027 0.572327
vn 0.940620 -0.155438 0.301783
vn 0.947702 0.093909 0.305027
vn 0.991595 -0.129339 -0.003397
vn 0.995654 0.092666 0.009287
vn 0.753779 0.198251 -0.626509
vn 0.890501 0.287547 -0.352598
vn 0.535513 0.097596 -0.838869
vn 0.260033 -0.001914 -0.965598
vn -0.040795 -0.089143 -0.995183
vn -0.334979 -0.156649 -0.929113
vn -0.595176 -0.200553 -0.778167
vn -0.799844 -0.219265 -0.558725
vn -0.932919 -0.212546 -0.290665
vn -0.983459 -0.181095 0.003562
vn -0.945736 -0.126504 0.299299
vn -0.820023 -0.051541 0.570005
vn -0.614225 0.039132 0.788160
vn -0.346011 0.137914 0.928039
vn -0.043313 0.234049 0.971260
vn 0.259836 0.315638 0.912611
vn 0.530911 0.372815 0.761014
vn 0.744449 0.399527 0.534952
vn 0.882698 0.393373 0.257105
vn 0.933678 0.354900 -0.047866
vn 0.000000 -1.000000 0.000000
vn 0.000000 -1.000000 0.000000
vn 0.000000 -1.000000 0.000000
vn 0.000000 -1.000000 0.000000
vn 0.000000 -1.000000 0.000000
vn 0.000000 -1.000000 0.000000
vn 0.000000 -1.000000 0.000000
vn 0.000000 -1.000000 0.000000
vn 0.000000 -1.000000 0.000000
vn 0.000000 -1.000000 0.000000
vn 0.000000 -1.000000 0.000000
vn 0.000000 -1.000000 0.000000
vn 0.000000 -1.000000 0.000000
vn 0.000000 -1.000000 0.000000
vn 0.000000 -1.000000 0.000000
vn 0.000000 -1.000000 0.000000
vn 0.000000 -1.000000 0.000000
vn 0.000000 -1.000000 0.000000
vn 0.000000 -1.000000 0.000000
vn 0.000000 -1.000000 0.000000
vn 0.115495 0.993114 0.019656
vn 0.394783 0.613666 -0.683784
vn -0.387409 0.632184 -0.671013
vn -0.384129 0.640140 -0.665331
vn 0.402494 0.593293 -0.697139
vn -0.789566 0.613666 -0.000000
vn -0.804987 0.593293 -0.000000
vn -0.387410 0.632184 0.671012
vn -0.384129 0.640140 0.665331
vn 0.394783 0.613666 0.683784
vn 0.402493 0.593293 0.697139
vn 0.774819 0.632184 0.000000
vn 0.768258 0.640140 0.000000
vn 0.209966 -0.907556 0.363671
vn -0.060645 -0.992617 0.105041
vn 0.000000 -1.000000 0.000000
vn 0.121291 -0.992617 -0.000000
vn 0.209966 -0.907556 -0.363671
vn -0.060645 -0.992617 -0.105040
vn -0.419932 -0.907556 -0.000000
vn 0.382863 0.443090 -0.810609
vn -0.893440 0.443090 -0.073736
vn -0.893439 0.443090 0.073736
vn 0.382863 0.443090 0.810609
vn 0.510577 0.443090 0.736873
vn 0.510577 0.443090 -0.736873
s 1
g pCone12
usemtl lambert12SG
f 1/7/1 2/8/2 8/15/3 7/14/4
f 2/8/2 3/9/5 9/16/6 8/15/3
f 3/9/5 4/10/7 10/17/8 9/16/6
f 4/10/7 5/11/9 11/18/10 10/17/8
f 5/11/9 6/12/11 12/19/12 11/18/10
f 6/12/11 1/13/1 7/20/4 12/19/12
s 2
f 2/2/13 1/1/14 13/21/15
f 3/3/16 2/2/13 13/21/15
f 4/4/17 3/3/16 13/21/15
f 5/5/18 4/4/17 13/21/15
f 6/6/19 5/5/18 13/21/15
f 1/1/14 6/6/19 13/21/15
s 1
f 7/14/4 8/15/3 14/22/20
f 8/15/3 9/16/6 14/22/21
f 9/16/6 10/17/8 14/22/22
f 10/17/8 11/18/10 14/22/23
f 11/18/10 12/19/12 14/22/24
f 12/19/12 7/20/4 14/22/25
s 3
f 15/23/26 16/24/27 22/25/28 21/26/29
f 16/24/27 17/27/30 23/28/31 22/25/28
f 17/27/30 18/29/32 24/30/33 23/28/31
f 18/29/32 19/31/34 25/32/35 24/30/33
f 19/31/34 20/33/36 26/34/37 25/32/35
f 20/33/36 15/35/26 21/36/29 26/34/37
s 4
f 16/37/38 15/38/39 27/39/40
f 17/40/41 16/37/38 27/39/40
f 18/41/42 17/40/41 27/39/40
f 19/42/43 18/41/42 27/39/40
f 20/43/44 19/42/43 27/39/40
f 15/38/39 20/43/44 27/39/40
s 3
f 21/26/29 22/25/28 28/44/45
f 22/25/28 23/28/31 28/44/46
f 23/28/31 24/30/33 28/44/47
f 24/30/33 25/32/35 28/44/48
f 25/32/35 26/34/37 28/44/49
f 26/34/37 21/36/29 28/44/50
s 5
usemtl lambert13SG
f 29/45/51 30/46/52 50/47/53 49/48/54
f 30/46/52 31/49/55 51/50/56 50/47/53
f 31/49/55 32/51/57 52/52/58 51/50/56
f 32/51/57 33/53/59 53/54/60 52/52/58
f 33/53/59 34/55/61 54/56/62 53/54/60
f 34/55/61 35/57/63 55/58/64 54/56/62
f 35/57/63 36/59/65 56/60/66 55/58/64
f 36/59/65 37/61/67 57/62/68 56/60/66
f 37/61/67 38/63/69 58/64/70 57/62/68
f 38/63/69 39/65/71 59/66/72 58/64/70
f 39/65/71 40/67/73 60/68/74 59/66/72
f 40/67/73 41/69/75 61/70/76 60/68/74
f 41/69/75 42/71/77 62/72/78 61/70/76
f 42/71/77 43/73/79 63/74/80 62/72/78
f 43/73/79 44/75/81 64/76/82 63/74/80
f 44/75/81 45/77/83 65/78/84 64/76/82
f 45/77/83 46/79/85 66/80/86 65/78/84
f 46/79/85 47/81/87 67/82/88 66/80/86
f 47/81/87 48/83/89 68/84/90 67/82/88
f 48/83/89 29/85/51 49/86/54 68/84/90
f 49/48/54 50/47/53 70/87/91 69/88/92
f 50/47/53 51/50/56 71/89/93 70/87/91
f 51/50/56 52/52/58 72/90/94 71/89/93
f 52/52/58 53/54/60 73/91/95 72/90/94
f 53/54/60 54/56/62 74/92/96 73/91/95
f 54/56/62 55/58/64 75/93/97 74/92/96
f 55/58/64 56/60/66 76/94/98 75/93/97
f 56/60/66 57/62/68 77/95/99 76/94/98
f 57/62/68 58/64/70 78/96/100 77/95/99
f 58/64/70 59/66/72 79/97/101 78/96/100
f 59/66/72 60/68/74 80/98/102 79/97/101
f 60/68/74 61/70/76 81/99/103 80/98/102
f 61/70/76 62/72/78 82/100/104 81/99/103
f 62/72/78 63/74/80 83/101/105 82/100/104
f 63/74/80 64/76/82 84/102/106 83/101/105
f 64/76/82 65/78/84 85/103/107 84/102/106
f 65/78/84 66/80/86 86/104/108 85/103/107
f 66/80/86 67/82/88 87/105/109 86/104/108
f 67/82/88 68/84/90 88/106/110 87/105/109
f 68/84/90 49/86/54 69/107/92 88/106/110
s off
f 29/108/111 48/109/112 47/110/113 46/111/114 45/112/115 44/113/116 43/114/117 42/115/118 41/116/119 40/117/120 39/118/121 38/119/122 37/120/123 36/121/124 35/122/125 34/123/126 33/124/127 32/125/128 31/126/129 30/127/130
s 5
f 69/88/92 70/87/91 89/128/131
f 70/87/91 71/89/93 89/128/131
f 71/89/93 72/90/94 89/128/131
f 72/90/94 73/91/95 89/128/131
f 73/91/95 74/92/96 89/128/131
f 74/92/96 75/93/97 89/128/131
f 75/93/97 76/94/98 89/128/131
f 76/94/98 77/95/99 89/128/131
f 77/95/99 78/96/100 89/128/131
f 78/96/100 79/97/101 89/128/131
f 79/97/101 80/98/102 89/128/131
f 80/98/102 81/99/103 89/128/131
f 81/99/103 82/100/104 89/128/131
f 82/100/104 83/101/105 89/128/131
f 83/101/105 84/102/106 89/128/131
f 84/102/106 85/103/107 89/128/131
f 85/103/107 86/104/108 89/128/131
f 86/104/108 87/105/109 89/128/131
f 87/105/109 88/106/110 89/128/131
f 88/106/110 69/107/92 89/128/131
s 6
usemtl lambert12SG
f 90/129/132 91/130/133 97/131/134 96/132/135
f 91/130/133 92/133/136 98/134/137 97/131/134
f 92/133/136 93/135/138 99/136/139 98/134/137
f 93/135/138 94/137/140 100/138/141 99/136/139
f 94/137/140 95/139/142 101/140/143 100/138/141
f 95/139/142 90/141/132 96/142/135 101/140/143
s 7
f 91/143/144 90/144/145 102/145/146
f 92/146/147 91/143/144 102/145/146
f 93/147/148 92/146/147 102/145/146
f 94/148/149 93/147/148 102/145/146
f 95/149/150 94/148/149 102/145/146
f 90/144/145 95/149/150 102/145/146
s 6
f 96/132/135 97/131/134 103/150/151
f 97/131/134 98/134/137 103/150/152
f 98/134/137 99/136/139 103/150/153
f 99/136/139 100/138/141 103/150/154
f 100/138/141 101/140/143 103/150/155
f 101/140/143 96/142/135 103/150/156
